<svg width="100" height="100" viewBox="0 0 100 100" fill="none" xmlns="http://www.w3.org/2000/svg">
<mask id="path-1-inside-1_2_134" fill="white">
<path d="M0 6H100V13H0V6Z"/>
</mask>
<path d="M99 6V13H101V6H99ZM1 13V6H-1V13H1Z" fill="#E7C063" mask="url(#path-1-inside-1_2_134)"/>
<mask id="path-3-inside-2_2_134" fill="white">
<path d="M6 0H13V100H6V0Z"/>
</mask>
<path d="M6 1H13V-1H6V1ZM13 99H6V101H13V99Z" fill="#E7C063" mask="url(#path-3-inside-2_2_134)"/>
<mask id="path-5-inside-3_2_134" fill="white">
<path d="M87 0H94V100H87V0Z"/>
</mask>
<path d="M87 1H94V-1H87V1ZM94 99H87V101H94V99Z" fill="#E7C063" mask="url(#path-5-inside-3_2_134)"/>
<mask id="path-7-inside-4_2_134" fill="white">
<path d="M15 0H85V100H15V0Z"/>
</mask>
<path d="M15 1H85V-1H15V1ZM85 99H15V101H85V99Z" fill="#E7C063" mask="url(#path-7-inside-4_2_134)"/>
<mask id="path-9-inside-5_2_134" fill="white">
<path d="M0 15H100V85H0V15Z"/>
</mask>
<path d="M99 15V85H101V15H99ZM1 85V15H-1V85H1Z" fill="#E7C063" mask="url(#path-9-inside-5_2_134)"/>
<mask id="path-11-inside-6_2_134" fill="white">
<path d="M0 87H100V94H0V87Z"/>
</mask>
<path d="M99 87V94H101V87H99ZM1 94V87H-1V94H1Z" fill="#E7C063" mask="url(#path-11-inside-6_2_134)"/>
<mask id="path-13-inside-7_2_134" fill="white">
<path d="M3 0H7V10H3V0Z"/>
</mask>
<path d="M7 10V11H8V10H7ZM3 10H2V11H3V10ZM6 0V10H8V0H6ZM7 9H3V11H7V9ZM4 10V0H2V10H4Z" fill="#E7C063" mask="url(#path-13-inside-7_2_134)"/>
<mask id="path-15-inside-8_2_134" fill="white">
<path d="M0 3H10V7H0V3Z"/>
</mask>
<path d="M10 3H11V2H10V3ZM10 7V8H11V7H10ZM0 4H10V2H0V4ZM9 3V7H11V3H9ZM10 6H0V8H10V6Z" fill="#E7C063" mask="url(#path-15-inside-8_2_134)"/>
<mask id="path-17-inside-9_2_134" fill="white">
<path d="M12 0H16V4H12V0Z"/>
</mask>
<path d="M16 4V5H17V4H16ZM12 4H11V5H12V4ZM15 0V4H17V0H15ZM16 3H12V5H16V3ZM13 4V0H11V4H13Z" fill="#E7C063" mask="url(#path-17-inside-9_2_134)"/>
<mask id="path-19-inside-10_2_134" fill="white">
<path d="M0 12H4V16H0V12Z"/>
</mask>
<path d="M4 12H5V11H4V12ZM4 16V17H5V16H4ZM0 13H4V11H0V13ZM3 12V16H5V12H3ZM4 15H0V17H4V15Z" fill="#E7C063" mask="url(#path-19-inside-10_2_134)"/>
<rect x="0.5" y="0.5" width="3" height="3" stroke="#E7C063"/>
<mask id="path-22-inside-11_2_134" fill="white">
<path d="M3 90H7V100H3V90Z"/>
</mask>
<path d="M3 90V89H2V90H3ZM7 90H8V89H7V90ZM3 91H7V89H3V91ZM6 90V100H8V90H6ZM4 100V90H2V100H4Z" fill="#E7C063" mask="url(#path-22-inside-11_2_134)"/>
<mask id="path-24-inside-12_2_134" fill="white">
<path d="M0 93H10V97H0V93Z"/>
</mask>
<path d="M10 93H11V92H10V93ZM10 97V98H11V97H10ZM0 94H10V92H0V94ZM9 93V97H11V93H9ZM10 96H0V98H10V96Z" fill="#E7C063" mask="url(#path-24-inside-12_2_134)"/>
<mask id="path-26-inside-13_2_134" fill="white">
<path d="M12 96H16V100H12V96Z"/>
</mask>
<path d="M12 96V95H11V96H12ZM16 96H17V95H16V96ZM12 97H16V95H12V97ZM15 96V100H17V96H15ZM13 100V96H11V100H13Z" fill="#E7C063" mask="url(#path-26-inside-13_2_134)"/>
<mask id="path-28-inside-14_2_134" fill="white">
<path d="M0 84H4V88H0V84Z"/>
</mask>
<path d="M4 84H5V83H4V84ZM4 88V89H5V88H4ZM0 85H4V83H0V85ZM3 84V88H5V84H3ZM4 87H0V89H4V87Z" fill="#E7C063" mask="url(#path-28-inside-14_2_134)"/>
<rect x="0.5" y="96.5" width="3" height="3" stroke="#E7C063"/>
<mask id="path-31-inside-15_2_134" fill="white">
<path d="M93 0H97V10H93V0Z"/>
</mask>
<path d="M97 10V11H98V10H97ZM93 10H92V11H93V10ZM96 0V10H98V0H96ZM97 9H93V11H97V9ZM94 10V0H92V10H94Z" fill="#E7C063" mask="url(#path-31-inside-15_2_134)"/>
<mask id="path-33-inside-16_2_134" fill="white">
<path d="M90 3H100V7H90V3Z"/>
</mask>
<path d="M90 3V2H89V3H90ZM90 7H89V8H90V7ZM90 4H100V2H90V4ZM100 6H90V8H100V6ZM91 7V3H89V7H91Z" fill="#E7C063" mask="url(#path-33-inside-16_2_134)"/>
<mask id="path-35-inside-17_2_134" fill="white">
<path d="M84 0H88V4H84V0Z"/>
</mask>
<path d="M88 4V5H89V4H88ZM84 4H83V5H84V4ZM87 0V4H89V0H87ZM88 3H84V5H88V3ZM85 4V0H83V4H85Z" fill="#E7C063" mask="url(#path-35-inside-17_2_134)"/>
<mask id="path-37-inside-18_2_134" fill="white">
<path d="M96 12H100V16H96V12Z"/>
</mask>
<path d="M96 12V11H95V12H96ZM96 16H95V17H96V16ZM96 13H100V11H96V13ZM100 15H96V17H100V15ZM97 16V12H95V16H97Z" fill="#E7C063" mask="url(#path-37-inside-18_2_134)"/>
<rect x="96.5" y="0.5" width="3" height="3" stroke="#E7C063"/>
<mask id="path-40-inside-19_2_134" fill="white">
<path d="M93 90H97V100H93V90Z"/>
</mask>
<path d="M93 90V89H92V90H93ZM97 90H98V89H97V90ZM93 91H97V89H93V91ZM96 90V100H98V90H96ZM94 100V90H92V100H94Z" fill="#E7C063" mask="url(#path-40-inside-19_2_134)"/>
<mask id="path-42-inside-20_2_134" fill="white">
<path d="M90 93H100V97H90V93Z"/>
</mask>
<path d="M90 93V92H89V93H90ZM90 97H89V98H90V97ZM90 94H100V92H90V94ZM100 96H90V98H100V96ZM91 97V93H89V97H91Z" fill="#E7C063" mask="url(#path-42-inside-20_2_134)"/>
<mask id="path-44-inside-21_2_134" fill="white">
<path d="M84 96H88V100H84V96Z"/>
</mask>
<path d="M84 96V95H83V96H84ZM88 96H89V95H88V96ZM84 97H88V95H84V97ZM87 96V100H89V96H87ZM85 100V96H83V100H85Z" fill="#E7C063" mask="url(#path-44-inside-21_2_134)"/>
<mask id="path-46-inside-22_2_134" fill="white">
<path d="M96 84H100V88H96V84Z"/>
</mask>
<path d="M96 84V83H95V84H96ZM96 88H95V89H96V88ZM96 85H100V83H96V85ZM100 87H96V89H100V87ZM97 88V84H95V88H97Z" fill="#E7C063" mask="url(#path-46-inside-22_2_134)"/>
<rect x="96.5" y="96.5" width="3" height="3" stroke="#E7C063"/>
</svg>
