<svg version="1.0" xmlns="http://www.w3.org/2000/svg"
 width="1429.000000pt" height="2000.000000pt" viewBox="0 0 1429.000000 2000.000000"
 preserveAspectRatio="xMidYMid meet">

<g transform="translate(0.000000,2000.000000) scale(0.100000,-0.100000)"
fill="#A24B21" stroke="none">
<path d="M6815 19473 c-22 -1 -103 -7 -180 -13 -650 -50 -1353 -227 -1956
-491 -702 -308 -1327 -735 -1869 -1278 -321 -321 -557 -606 -791 -956 -500
-745 -833 -1613 -963 -2506 -61 -422 -60 -370 -66 -2029 l-5 -1526 -35 -59
c-19 -33 -73 -98 -120 -146 -91 -91 -185 -147 -290 -171 -27 -6 -50 -14 -50
-18 0 -3 31 -13 68 -23 146 -38 290 -151 383 -302 l49 -79 0 -1351 c0 -784 4
-1430 10 -1540 38 -695 176 -1325 433 -1975 86 -218 259 -574 377 -780 520
-900 1301 -1687 2210 -2227 447 -265 959 -483 1460 -623 968 -269 2010 -299
2991 -85 1005 218 1953 695 2719 1367 1041 913 1731 2098 1999 3434 37 187 75
445 97 669 15 149 18 352 21 1640 l4 1469 31 57 c88 165 275 310 436 336 46 8
40 17 -20 32 -168 41 -323 164 -417 332 l-31 56 0 1344 c0 739 -5 1439 -10
1554 -34 726 -172 1377 -434 2040 -76 192 -268 588 -376 775 -721 1249 -1897
2233 -3251 2720 -525 189 -1110 309 -1699 350 -131 9 -626 11 -725 3z m615
-33 c454 -24 813 -76 1212 -175 663 -166 1278 -435 1848 -809 1037 -681 1835
-1633 2305 -2751 264 -628 419 -1291 465 -1990 6 -98 10 -712 10 -1593 l0
-1434 -30 -57 c-46 -86 -122 -175 -195 -227 -69 -49 -175 -98 -237 -109 -48
-9 -48 -21 -1 -30 166 -31 343 -168 432 -335 l32 -59 -4 -1508 c-3 -1346 -5
-1524 -20 -1658 -72 -624 -198 -1143 -405 -1660 -646 -1617 -1970 -2903 -3593
-3490 -531 -192 -1107 -314 -1671 -355 -211 -15 -702 -12 -910 5 -1292 106
-2461 583 -3443 1405 -664 557 -1180 1208 -1560 1969 -361 723 -565 1477 -625
2306 -6 85 -10 704 -10 1568 l0 1429 42 71 c86 147 252 274 403 308 30 7 55
15 55 18 0 4 -24 12 -52 19 -77 18 -185 72 -249 125 -62 51 -138 145 -175 219
l-24 47 0 1479 c0 928 4 1528 10 1613 62 796 263 1539 605 2234 768 1564 2176
2738 3837 3204 629 176 1314 254 1948 221z"/>
<path d="M6730 18669 c-538 -43 -1122 -182 -1615 -385 -203 -84 -586 -279
-762 -388 -574 -355 -1070 -801 -1474 -1326 -627 -814 -992 -1755 -1079 -2775
-6 -78 -10 -1309 -10 -3531 0 -3354 0 -3414 20 -3610 79 -770 312 -1472 711
-2139 243 -407 500 -737 839 -1076 212 -213 355 -336 605 -524 495 -372 1015
-643 1565 -815 972 -305 1928 -329 2945 -74 2062 518 3673 2291 3974 4374 59
408 56 172 56 3815 0 3515 1 3448 -45 3810 -115 900 -476 1783 -1030 2520
-732 971 -1784 1675 -2949 1971 -296 76 -628 130 -930 154 -156 12 -667 11
-821 -1z m732 -79 c514 -30 1062 -142 1503 -306 1291 -483 2354 -1437 2951
-2649 315 -641 480 -1263 524 -1972 6 -113 10 -1292 10 -3475 0 -3553 2 -3426
-51 -3781 -244 -1659 -1340 -3152 -2877 -3921 -384 -192 -668 -297 -1082 -401
-268 -67 -534 -114 -815 -145 -162 -18 -649 -24 -845 -11 -564 39 -1171 181
-1667 392 -320 136 -769 390 -1038 587 -1200 882 -1983 2142 -2184 3517 -54
368 -52 229 -49 3945 3 3227 5 3443 21 3575 81 630 230 1143 486 1670 266 548
580 987 1020 1425 416 415 817 707 1326 965 410 208 704 318 1150 429 348 87
650 133 1055 160 109 7 409 5 562 -4z"/>
</g>
</svg>